<svg xmlns="http://www.w3.org/2000/svg" viewBox="0 0 64 64">
<g fill="#f07078">
<path d="M 31 30 H 2 Q 0 30 0 28 V 21 Q 0 19 2 19 H 31 Z" />
<path d="M 33 30 H 62 Q 64 30 64 28 V 21 Q 64 19 62 19 H 33 Z" />
</g>
<g fill="#5bb3d2">
<path d="M 31 64 H 7 Q 4 64 4 61 V 32 H 31 Z" />
<path d="M 33 64 H 57 Q 60 64 60 61 V 32 H 33 Z" />
<path d="M 32 16 H 19 A 8 8 0 1 1 24.6569 2.3431 L 32 9.6862 Z M 32 16 H 45 A 8 8 0 1 0 39.3431 2.3431 L 32 9.6862 Z M 19 12 H 28.6568 L 21.8284 5.1716 A 4 4 0 1 0 19 12 Z M 45 12 H 35.3432 L 42.1716 5.1716 A 4 4 0 1 1 45 12 Z" />
</g>
</svg>
